<svg id="Layer_1" data-name="Layer 1" xmlns="http://www.w3.org/2000/svg" viewBox="0 0 500 500"><title>mkrb-icon</title><path class="cls-1" d="M250,499.57C112.38,499.57.42,387.61,0.42,250S112.38,0.43,250,.43,499.58,112.38,499.58,250,387.62,499.57,250,499.57Zm0-485.13C120.11,14.44,14.44,120.11,14.44,250S120.11,485.56,250,485.56,485.56,379.89,485.56,250,379.89,14.44,250,14.44ZM168.29,126.6L151.42,119c-7.93-1.93-17.1-8.38-25.25-2.49-3.62,3.28-3.29,9.29-2.38,13.93,8.61,23.21,12.34,48.47,12.46,75.31-0.34,21.52,14.61,41.9,34,49.94-2,.34-4.19.57-6.23,0.8-30.46,2.83-51.87,33.74-59.79,60.13-1,6.23-4.41,14.72.79,20,12.46,10.64,28.76,13.14,45.07,14.72,31.82,1.13,61.15-12.57,77.23-40.77,5.44-6.79-5.55-6.23-7.59-11.1-9.17-14.16.45-30,4.3-43.48,2.49-4.64,4.19-10.19,8.95-13.14,2.94-2.26,7.71-1.24,10.65-1.81,0.91-9.29-3.08-17.66-10.08-24.46v-0.91c7-.34,12.45,4,17.66,8.15l0.79-.45c0.45-46.43-49.49-76.21-83.69-96.82m253.55,63.64-2.95-1.92c-26.5-9.06-60.13-6.46-87.76-1.93-26.84,5.66-55.72,11.66-71.79,38a1.23,1.23,0,0,0,1.13,1.93c4.53-1.81,9.74-1.13,14.61-.57,1.24,0.79,3.62.45,3.62,2.49-8.27,2.38-16.76,7.47-21.52,14.95-1.81,2.72,1.93,2.38,2.95,3.51,11.44,7.36,4.87,23.33,3.62,34-3.28,10.19-6.34,23.55-18.57,27-3.29.91-7-1-9.51,1.59A72.94,72.94,0,0,0,237,329.87c3.62,28.54,31.82,53.56,58.2,60.92,10.64,2.83,22.65,6.8,34.2,3.29,7.81-5.21,9.51-14.72,11.21-23.44,5-29.56-.68-60-27.18-77.12,10.42,1.59,21.06-1.24,30.46-4.87,28-11.89,33.29-42.58,54.58-62.06,8.72-10.08,22.31-16.31,26-29,0.68-4.08-.23-5.55-2.72-7.36"/></svg>