<svg id="Layer_1" data-name="Layer 1" xmlns="http://www.w3.org/2000/svg" viewBox="0 0 500 500"><title>mkrb-icon</title><path class="cls-1" d="M249.8,500C112.06,500,0,388,0,250.23S112.06,0.43,249.8.43s249.8,112.06,249.8,249.81S387.54,500,249.8,500Zm0-485.59C119.8,14.45,14,120.22,14,250.23S119.8,486,249.8,486,485.58,380.25,485.58,250.23,379.81,14.45,249.8,14.45ZM388.69,181.9l-4.51-4.51c-6.23,4.7-13,5.08-17.68.59a17.9,17.9,0,0,1-4.4-7.56c-1.27-4.34.48-8.31,3.37-11.75l-6.83-6.83a61.84,61.84,0,0,0,4.56-4.63,19,19,0,0,0,3.12-5,12.86,12.86,0,0,0-5-15.1,13,13,0,0,0-16.7,1.83q-32.4,32.35-64.74,64.77a4.55,4.55,0,0,1-4.23,1.54c-8.1-.93-12.89,4.12-12.14,12.32a4.89,4.89,0,0,1-1.14,3.49c-27.24,27.35-47.57,47.66-72.9,73a32.14,32.14,0,0,0-61.7,12.61,31.83,31.83,0,0,0,6.52,19.19,32,32,0,1,0,43.84,43.84,31.83,31.83,0,0,0,19.19,6.51,32.05,32.05,0,0,0,9.59-62.66c25.72-25.67,46.39-46.35,73.82-73.82a4,4,0,0,1,3.77-1.37c8.28,1,13.26-4,12.26-12.31a4,4,0,0,1,1.4-3.75c7.23-7.16,14.41-14.37,21.6-21.56l1.95-1.95,6.78,6.78c6.77-4.74,13.35-4.75,18.26-.14,5.22,4.9,5.46,11.3.7,18.91l9,9,8.94-8.94c-4.8-7.14-4.68-13.66.26-18.6s11.4-5,18.55-.3l9.08-9.08ZM159.89,283.25a13.44,13.44,0,1,1-13.44,13.44A13.45,13.45,0,0,1,159.89,283.25Zm-9.35,73.64A13.44,13.44,0,1,1,164,343.45,13.45,13.45,0,0,1,150.53,356.89Zm46.75-9.35a13.44,13.44,0,1,1,13.44-13.44A13.45,13.45,0,0,1,197.29,347.54Z"/></svg>