<svg id="Layer_1" data-name="Layer 1" xmlns="http://www.w3.org/2000/svg" viewBox="0 0 500 500"><title>mkrb-icon</title><path class="cls-1" d="M249.8,499.8C112.06,499.8,0,387.74,0,250S112.06,0.2,249.8.2,499.61,112.26,499.61,250,387.55,499.8,249.8,499.8Zm0-485.57C119.8,14.23,14,120,14,250S119.8,485.77,249.8,485.77,485.58,380,485.58,250,379.81,14.23,249.8,14.23ZM328,177.76A16.71,16.71,0,0,0,333,166.92,16.73,16.73,0,0,0,322.18,172a11.39,11.39,0,0,0-1.21-4.57,13,13,0,0,0-8.17,8.43,11.89,11.89,0,0,0-1.93-5.29,13.77,13.77,0,0,0-5.53,8.19,6.33,6.33,0,0,0-2.88-4.57,17.91,17.91,0,0,0-5.05,10.11A5.77,5.77,0,0,0,295,179.2a20.83,20.83,0,0,0-5.53,11.8q0.24-3.85-1.93-5.78-4.81,4.57-5.29,14.21a11,11,0,0,0-2.89-5.78,24.81,24.81,0,0,0-5.89,18.06q0.59,10.35-11.91,20-1.45-22.63,9.62-51.77,11.79-32.5,36.56-46.71-25.26-2.17-41.13,15.89-14.43,18.06-16.84,39-2.16-20.95-16.6-39Q217.3,131,192,133.21q24.78,14.21,36.57,46.71,11.07,29.14,9.62,51.77-12.51-9.63-11.91-20a24.84,24.84,0,0,0-5.89-18.06,11,11,0,0,0-2.89,5.78q-0.48-9.63-5.29-14.21-2.17,1.93-1.93,5.78a20.8,20.8,0,0,0-5.53-11.8,5.77,5.77,0,0,0-2.41,5.06,18,18,0,0,0-5.05-10.11,6.34,6.34,0,0,0-2.89,4.57,13.75,13.75,0,0,0-5.53-8.19,11.89,11.89,0,0,0-1.93,5.29,13,13,0,0,0-8.18-8.43,11.43,11.43,0,0,0-1.2,4.57A16.52,16.52,0,0,0,167,166.92a17.23,17.23,0,0,0,4.81,10.84,9.87,9.87,0,0,0-4.33,1.2,12.31,12.31,0,0,0,8.18,8.19,11.87,11.87,0,0,0-5.29,1.92,13.74,13.74,0,0,0,8.18,5.54,6.33,6.33,0,0,0-4.57,2.89,17.86,17.86,0,0,0,10.11,5.05A5.77,5.77,0,0,0,179,205a20.78,20.78,0,0,0,11.79,5.54q-3.85-.24-5.77,1.92,4.57,4.82,14.19,5.3a11,11,0,0,0-5.77,2.89,24.72,24.72,0,0,0,18,5.9q10.35-.59,20,11.92-22.61,1.44-51.72-9.63-32.24-11.8-46.43-36.6-2.17,25.28,15.87,41.18,18,14.45,38.73,16.85-20.69,2.17-38.73,16.61-18,15.9-15.87,41.18,14.19-24.8,46.43-36.6,29.11-11.07,51.72-9.63-9.63,12.52-20,11.92a24.74,24.74,0,0,0-18,5.9,11,11,0,0,0,5.77,2.89q-9.62.49-14.19,5.3,1.93,2.17,5.77,1.93A20.8,20.8,0,0,0,179,295.27a5.76,5.76,0,0,0,5.05,2.41A17.89,17.89,0,0,0,174,302.73a6.31,6.31,0,0,0,4.57,2.89,13.77,13.77,0,0,0-8.18,5.54,11.84,11.84,0,0,0,5.29,1.93,12.3,12.3,0,0,0-8.18,8.19,9.83,9.83,0,0,0,4.33,1.2A17.26,17.26,0,0,0,167,333.31a16.48,16.48,0,0,0,10.59-5.05,11.43,11.43,0,0,0,1.2,4.57A13,13,0,0,0,187,324.4a11.88,11.88,0,0,0,1.93,5.3,13.75,13.75,0,0,0,5.53-8.19,6.33,6.33,0,0,0,2.89,4.58A18,18,0,0,0,202.38,316a5.77,5.77,0,0,0,2.41,5.06,20.78,20.78,0,0,0,5.53-11.8q-0.24,3.85,1.93,5.78,4.81-4.57,5.29-14.21a11,11,0,0,0,2.89,5.78,24.82,24.82,0,0,0,5.89-18.06q-0.6-10.35,11.91-20,1.44,22.64-9.62,51.77Q216.81,352.82,192,366.78q25.27,2.17,41.14-15.65,14.43-18.06,16.84-39,2.16,21,16.6,39,15.88,17.82,41.13,15.65-24.78-14-36.56-46.47-11.07-29.13-9.62-51.77,12.51,9.63,11.91,20a24.79,24.79,0,0,0,5.89,18.06,11,11,0,0,0,2.89-5.78q0.48,9.63,5.29,14.21,2.17-1.93,1.93-5.78A20.8,20.8,0,0,0,295,321a5.77,5.77,0,0,0,2.41-5.06,17.91,17.91,0,0,0,5.05,10.12,6.32,6.32,0,0,0,2.88-4.58,13.77,13.77,0,0,0,5.53,8.19,11.88,11.88,0,0,0,1.93-5.3,13,13,0,0,0,8.17,8.43,11.39,11.39,0,0,0,1.21-4.57A16.69,16.69,0,0,0,333,333.31,16.74,16.74,0,0,0,328,322.48a11.35,11.35,0,0,0,4.57-1.2,13,13,0,0,0-8.42-8.19,11.82,11.82,0,0,0,5.29-1.93,13.77,13.77,0,0,0-8.18-5.54,6.31,6.31,0,0,0,4.57-2.89,17.89,17.89,0,0,0-10.11-5.06,5.75,5.75,0,0,0,5.05-2.41A20.77,20.77,0,0,0,309,289.73q3.85,0.24,5.77-1.93-4.57-4.81-14.19-5.3a11,11,0,0,0,5.77-2.89,24.74,24.74,0,0,0-18-5.9q-10.35.6-20-11.92,22.61-1.45,51.72,9.63,32.48,11.8,46.67,36.6,2.16-25.28-15.88-41.18-18-14.44-39-16.85,20.93-2.17,39-16.61,18-15.89,15.88-41.18Q352.49,217,320,228.81q-29.11,11.08-51.72,9.63,9.63-12.52,20-11.92a24.72,24.72,0,0,0,18-5.9,11,11,0,0,0-5.77-2.89q9.62-.48,14.19-5.3-1.93-2.17-5.77-1.92A20.75,20.75,0,0,0,320.74,205a5.76,5.76,0,0,0-5.05-2.41,17.86,17.86,0,0,0,10.11-5.05,6.34,6.34,0,0,0-4.57-2.89,13.74,13.74,0,0,0,8.18-5.54,11.86,11.86,0,0,0-5.29-1.92,13,13,0,0,0,8.42-8.19,11.41,11.41,0,0,0-4.57-1.2"/></svg>