<svg id="Layer_1" data-name="Layer 1" xmlns="http://www.w3.org/2000/svg" viewBox="0 0 500 500"><title>mkrb-icon</title><path class="cls-1" d="M250,499C112.7,499,1,387.3,1,250S112.7,1,250,1,499,112.7,499,250,387.3,499,250,499Zm0-484C120.41,15,15,120.41,15,250S120.41,485,250,485,485,379.59,485,250,379.59,15,250,15Zm6.77,281.15q10.68-5,20.07,2.08-5.47,9.65-16.16,9.64,10.42,7.82,9.91,17.46-8.08,3.13-15.12-4.69-2.87,15.12,15.12,22.94-2.09-8.6,2.08-15.12,9.91,3.39,12.25,12.77,4.69-11.47,15.64-12a16.76,16.76,0,0,1-2.34,15.38q7.82-1.82,13.55-9.64,5.21-7.82,3.39-14.86-1.3-2.35-6.52-7,1.3,6.52-6,14.07-9.12-8.86-6.25-20.33-7.3,9.38-18.24,6.52,1.3-12,12.25-15.12-12-5.47-10.16-18,12.51-1.82,18,10.16,3.13-10.95,15.12-12.25,2.87,10.95-6.52,18.24,11.47-2.87,20.33,6.26-7.57,7.29-14.07,6,4.69,5.21,7,6.52,7,1.82,14.85-3.39,7.82-5.74,9.64-13.56a16.73,16.73,0,0,1-15.37,2.35q0.52-10.95,12-15.64-9.38-2.35-12.77-12.25,6.51-4.17,15.12-2.09-7.81-18-22.93-15.12,7.81,7,4.69,15.12-9.64.52-17.46-9.91,0,10.69-9.64,16.16-7-9.38-2.09-20.07-11.72,1.56-18.5-7,6.77-8.34,18.5-6.77-5-10.95,2.09-20.07,9.64,5.47,9.64,16.16,7.82-10.42,17.46-9.9,3.13,8.08-4.69,15.12,15.11,2.87,22.93-15.12-8.6,2.09-15.12-2.09,3.38-9.91,12.77-12.25-11.47-4.69-12-15.64a15.81,15.81,0,0,1,15.37,2.34Q342.78,193.71,335,188q-7.81-5.21-14.85-3.39-2.35,1.3-7,6.52,6.51-1.3,14.07,6-8.86,9.12-20.33,6.26,9.38,7.3,6.52,18.24-12-1.3-15.12-12.25-5.47,12-18,10.16-1.82-12.51,10.16-18-10.94-3.12-12.25-15.12,10.94-2.87,18.24,6.52-2.87-11.46,6.25-20.33,7.29,7.55,6,14.07,5.21-4.69,6.52-7,1.82-7-3.39-14.59-5.74-7.82-13.55-9.64a16.31,16.31,0,0,1,2.34,15.12q-10.94-.52-15.64-11.73-2.35,9.12-12.25,12.51-4.17-6.26-2.08-14.85-18,7.81-15.12,22.67,7-7.82,15.12-4.69,0.52,9.65-9.91,17.46,10.69,0,16.16,9.64-9.38,7-20.07,2.09,1.56,11.73-7,18.51-8.35-6.78-6.78-18.51-10.94,5-20.07-2.09,5.47-9.64,16.16-9.64-10.43-7.82-9.91-17.46,8.08-3.13,15.12,4.69,2.86-14.86-15.12-22.67,2.09,8.6-2.08,14.85-9.91-3.39-12.25-12.51-4.69,11.21-15.64,11.73a15.38,15.38,0,0,1,2.34-15.12Q193.7,157.21,188,165q-5.21,7.55-3.39,14.59,1.3,2.35,6.52,7-1.3-6.52,6-14.07,9.12,8.86,6.26,20.33,7.29-9.38,18.24-6.52-1.3,12-12.25,15.12,12,5.47,10.16,18-12.51,1.82-18-10.16-3.13,10.95-15.12,12.25-2.87-10.95,6.52-18.24-11.47,2.87-20.33-6.26,7.56-7.3,14.07-6-4.69-5.21-7-6.52-7-1.82-14.86,3.39-7.81,5.74-9.64,13.55a15.81,15.81,0,0,1,15.37-2.34q-0.52,10.95-12,15.64,9.38,2.35,12.77,12.25-6.52,4.17-15.12,2.09,7.82,18,22.94,15.12-7.81-7-4.69-15.12,9.65-.52,17.46,9.9,0-10.68,9.64-16.16,7,9.12,2.09,20.07,11.72-1.56,18.5,7-6.77,8.34-18.5,6.77,5,10.69-2.09,20.07-9.65-5.47-9.64-16.16-7.82,10.43-17.46,9.91-3.12-8.08,4.69-15.12-15.11-2.87-22.94,15.12,8.6-2.09,15.12,2.09-3.39,9.91-12.77,12.25,11.47,4.69,12,15.64a16.73,16.73,0,0,1-15.37-2.35q1.82,7.82,9.64,13.56,7.82,5.21,14.86,3.39,2.35-1.3,7-6.52-6.51,1.3-14.07-6,8.86-9.12,20.33-6.26-9.38-7.3-6.52-18.24,12,1.3,15.12,12.25,5.47-12,18-10.16,1.82,12.51-10.16,18,10.94,3.13,12.25,15.12-10.94,2.86-18.24-6.52,2.86,11.47-6.26,20.33-7.3-7.55-6-14.07-5.21,4.69-6.52,7-1.82,7,3.39,14.86,5.73,7.82,13.55,9.64a15.81,15.81,0,0,1-2.34-15.38q10.94,0.52,15.64,12,2.35-9.38,12.25-12.77,4.17,6.51,2.08,15.12,18-7.82,15.12-22.94-7,7.82-15.12,4.69-0.52-9.65,9.91-17.46-10.69,0-16.16-9.64,9.12-7,20.07-2.08-1.56-11.73,7-18.51,8.34,6.78,6.78,18.51M357.9,157.22q-14.33,4.69-18.77,8.34-2.09,2.35,1,3.39t12.9-3q9.77-4,23.85,9.77-17.2,11.47-25.28,6t-15.12-3.65q-3.91.26,3.65,6.25t10.42,16.94q3.91-8.86,14.34-10.69,3.38,11.21-4.17,19.81,10.95,0,17.2,8.08a19,19,0,0,1-18.77,3.91q5.47,8.6-.26,21.11-10.17-5.47-9.9-13-3.91,12.25-15.9,19.55,12,7,15.9,19.29-0.27-7.56,9.9-13,5.73,12.51.26,21.11A19,19,0,0,1,378,281.28q-6.25,8.08-17.2,8.08,7.56,8.6,4.17,19.81-10.43-1.82-14.34-10.69-2.87,10.94-10.42,16.81t-3.65,6.39q7,1.82,15.12-3.78T376.92,324q-14.07,14.08-23.85,9.91t-12.9-3.13q-3.13,1-1,3.65,4.43,3.65,18.64,8.21t13.68,28.8q-24.24.52-28.67-13.55-4.69-14.34-8.34-18.77-2.61-2.08-3.65,1t3.12,12.9q4.16,9.77-9.9,23.85-11.73-17.2-6.12-25.28t3.78-15.12q-0.53-3.91-6.39,3.65T298.48,350.6q8.86,3.91,10.69,14.34-11.2,3.39-19.81-4.17,0,10.95-8.08,17.2a19,19,0,0,1-3.91-18.77q-8.6,5.47-21.11-.26,5.47-10.16,13-9.9Q257,345.13,250,333.14q-7.29,12-19.55,15.9,7.56-.26,13,9.9-12.51,5.74-21.11.26A19,19,0,0,1,218.46,378q-8.08-6.26-8.08-17.2-8.6,7.55-19.81,4.17,1.82-10.43,10.68-14.34-10.94-2.87-16.94-10.42t-6.26-3.65q-1.82,7,3.65,15.12t-6,25.28q-14.08-14.08-9.91-23.85t3.13-12.9q-1-3.13-3.65-1-3.65,4.44-8.21,18.64t-28.8,13.69q-0.52-24.24,13.55-28.67,14.33-4.69,18.5-8.34,2.35-2.61-.78-3.65t-12.9,3.13q-9.77,4.17-23.59-9.91,16.94-11.72,25-6.12t15.11,3.78q3.91-.52-3.65-6.39t-10.43-16.81q-3.9,8.86-14.33,10.69Q131.42,298,139,289.36q-10.95,0-16.94-8.08,8.08-7,18.5-3.91-5.47-8.6.26-21.11,10.16,5.47,9.9,13Q154.61,257,166.6,250q-12-7.3-15.9-19.55,0.26,7.56-9.9,13-5.74-12.51-.26-21.11-10.42,3.13-18.5-3.91,6-8.08,16.94-8.08-7.56-8.6-4.17-19.81,10.42,1.82,14.33,10.69,2.87-10.95,10.43-16.94t3.65-6.25q-7-1.82-15.11,3.65t-25-6q13.82-13.81,23.59-9.77t12.9,3q3.13-1,.78-3.39-4.17-3.64-18.5-8.34-14.08-4.43-13.55-28.67,24.24-.52,28.8,13.68t8.21,18.64q2.61,2.09,3.65-1t-3.13-12.9q-4.16-9.77,9.91-23.85,11.47,17.21,6,25.28t-3.65,15.12q0.26,3.65,6.26-3.78t16.94-10.3q-8.86-3.9-10.68-14.33,11.2-3.39,19.81,4.17,0-10.94,8.08-17.2a19,19,0,0,1,3.91,18.77q8.6-5.47,21.11.26-5.47,10.16-13,9.9Q242.7,154.87,250,166.6A34.11,34.11,0,0,1,269.29,151q-7.56.26-13-9.9,12.51-5.74,21.11-.26A19,19,0,0,1,281.27,122q8.08,6.26,8.08,17.2,8.6-7.55,19.81-4.17-1.82,10.42-10.69,14.33,10.95,2.87,16.81,10.3t6.39,3.78q1.82-7-3.78-15.12T324,123.07q14.07,14.08,9.9,23.85t-3.12,12.9q1,3.13,3.65,1,3.65-4.43,8.21-18.64t28.8-13.68q0.52,24.24-13.55,28.67"/></svg>