<svg id="Layer_1" data-name="Layer 1" xmlns="http://www.w3.org/2000/svg" viewBox="0 0 500 500"><title>mkrb-icon</title><path class="cls-1" d="M250,0C112.15,0,0,112.15,0,250S112.15,500,250,500,500,387.85,500,250,387.85,0,250,0Zm0,486C119.89,486,14,380.11,14,250S119.89,14,250,14A234.87,234.87,0,0,1,403.5,71c-34.32,58-77.28,133-109.7,187.69A60.48,60.48,0,0,0,287.54,275c-2.47,10-4.2,20.21-6.15,30.34-0.89,4.61.28,8.67,4.36,11.27,3.76,2.41,7.73,4.52,11.7,6.57s7.9,1.4,10.06-2.26c8.82-14.91,18.92-29.37,25.53-45.24,18.57-44.6,35.65-89.81,53.32-134.78,5.49-14,17.25-40.3,26.39-61.48A235.25,235.25,0,0,1,486,250C486,380.11,380.11,486,250,486ZM219.82,336.53c-2.88,8.27-5.53,16.66-9,24.67-13.73,31.35-45.49,38.24-72.22,27.12-13.83-5.76-24.47-15.66-34.39-26.65C86.49,342.06,80.85,318.92,83,293.3c1.78-21.51,8.41-41.75,16.54-61.55,9.94-24.21,20.41-48.14,35.37-69.85,24.09-35,58-51.1,99.66-50.43,41.38,0.67,79.53,13,114.18,35.82,0.72,0.47,1.46.92,2.13,1.45a4,4,0,0,1,.63,1.08,13.48,13.48,0,0,1-.73,1.69c-2.42,4.15-4.87,8.29-7.51,12.75-6.57-4-12.79-8.2-19.43-11.61-28.39-14.57-58.42-23.14-90.49-24-35.25-.92-62.35,14.21-83.09,41.95-15.22,20.35-24.71,43.61-33.87,67-6.71,17.18-12.64,34.55-15.08,53-4.24,32,7.19,57.27,33.37,75.45,14.58,10.12,30.8,12.93,47.16,3.45,9.68-5.6,14.26-15.1,17.28-25.41,3.54-12,6.53-24.25,10.5-36.15,11.29-33.8,38.84-42.39,70.22-35.73L277.3,287.6c-6.24,0-12.4-.38-18.5.08-13.76,1-23.77,8.27-29.28,20.62C225.49,317.35,223.09,327.12,219.82,336.53Zm195.39-75.08a65.79,65.79,0,0,1-68.9,49.8c-6.84-.5-13.64-1.57-21-2.44,2.57-5.29,4.45-9.74,6.89-13.84a5.56,5.56,0,0,1,4.61-2.11c9.43,1.64,18.87,2.38,28.16-.23,19.68-5.52,29.51-20.34,33.57-38.9,4.93-22.59-3.53-42.24-17.8-59.12-5.36-6.34-6.34-11.27-2.55-18a69.24,69.24,0,0,0,3.06-7.13C410.36,193.44,423,230.1,415.21,261.44ZM307.45,365.79c-8.21,36.73-47.63,59.47-83.54,48.15-1.57-.5-3-1.28-5.13-2.18,17.41-12.57,29.8-28,36.44-47.69,1.38-4.11,2.36-8.37,3.82-12.45,4.7-13.1,17.85-20,30.81-16.28C303.44,339.23,310.61,351.64,307.45,365.79ZM173.22,321a22.91,22.91,0,0,1-22.31,22.69c-12.16.29-23-10.3-23.06-22.58a23.1,23.1,0,0,1,22.68-23A22.83,22.83,0,0,1,173.22,321Zm20.91-140.59a22.7,22.7,0,1,1,23,22.47A22.81,22.81,0,0,1,194.13,180.46ZM173.2,268a22.56,22.56,0,1,1-.26-45.12A22.56,22.56,0,0,1,173.2,268ZM313,180.41a22.61,22.61,0,1,1-22.66-22.7A22.47,22.47,0,0,1,313,180.41Z"/></svg>