<svg id="Layer_1" data-name="Layer 1" xmlns="http://www.w3.org/2000/svg" viewBox="0 0 500 500"><title>mkrb-icon</title><path class="cls-1" d="M250.27,250.12v-0.24c-0.18.06-.3,0.11-0.54,0.18C249.65,250.07,250.27,250.1,250.27,250.12Z"/><path class="cls-1" d="M250,0C112.15,0,0,112.15,0,250S112.15,500,250,500,500,387.85,500,250,387.85,0,250,0ZM386.62,442.2c-23.82-9.53-52.74-16.45-84.67-19.81-1.26-74.07,23.16-134.58,38.5-164.88l1.75-.67c-0.07.25-.16,0.49-0.23,0.73a38.12,38.12,0,0,0-1.5,5.76,39.8,39.8,0,0,0-.27,6c0,0.89,0,1.79,0,2.71a1.16,1.16,0,0,0,.35.86,1.19,1.19,0,0,0,.88.33l2.77-.12c0,1.19-.1,2.38-0.16,3.57a72.69,72.69,0,0,0,0,11.19,71.53,71.53,0,0,0,2.32,10.86c0.43,1.57.85,3.15,1.22,4.74a1.18,1.18,0,0,0,.78.84,1.16,1.16,0,0,0,1.12-.22c7.87-6.74,14.57-14.69,10.82-27l2.75-.5a1.16,1.16,0,0,0,.91-0.84c2.6-9.35-2.44-15.76-7.3-22-0.59-.76-1.2-1.52-1.78-2.28l2.5-.84a1.15,1.15,0,0,0,.78-0.92,1.17,1.17,0,0,0-.45-1.12l-4.2-3.19c4.9,1.61,8.46,5.14,12.45,9.09l0.55,0.54a1.18,1.18,0,0,0,1.21.27l1.51-.53,7.82,13.26a1.18,1.18,0,0,0,.81.56,1.11,1.11,0,0,0,1-.27l3-2.56,9.76,22.61a1.17,1.17,0,0,0,1.2.7l0.9-.1a1.17,1.17,0,0,0,1-.85c0.45-1.61.92-3.22,1.41-4.83a99.51,99.51,0,0,0,3.08-12.24c0.39-2.36-1.11-4.91-2.45-7.15l-0.41-.71a18.25,18.25,0,0,0-3-3.6l-0.43-.43,2.66-1.23a1.16,1.16,0,0,0,.29-1.92c-1.74-1.58-3.4-3.31-5-5-5.25-5.46-10.66-11.08-19.36-12.18l1.29-2.43a1.17,1.17,0,0,0-1-1.72l-11.4-.27a19.91,19.91,0,0,1,4.83-1.73c2.26-.39,4.57-1.25,5.14-4.42l2,0.77a51.72,51.72,0,0,0,7.6,2.51,9.65,9.65,0,0,1,2.28,1c2,1.09,4.73,2.56,7.87.1,2.15,1.17,4.24,2.49,6.43,3.89,6.44,4.11,13.1,8.36,22,8.49a1.08,1.08,0,0,0,1-.5,1.17,1.17,0,0,0,.14-1.08l-1.25-3.32c-0.7-1.9-1.43-3.83-2.17-5.78a8.3,8.3,0,0,0-.55-1.08l-0.21-.37c-0.62-1.18-1.17-2.45-1.73-3.72-1.33-3.07-2.7-6.24-5.14-8.32-2.24-1.92-5.47-2.51-8.6-3.08-0.88-.16-1.76-0.32-2.62-0.52l1.18-2.71a1.15,1.15,0,0,0,0-.9,1.17,1.17,0,0,0-.64-0.64c-9.09-3.81-19.55-7.05-29.12,2l-1.64-2.37a1.16,1.16,0,0,0-1.54-.35l-8.12,4.7,4.4-8.26a1.16,1.16,0,0,0-.38-1.52l-2.13-1.44,12-9.81a1.17,1.17,0,0,0,.2-1.6l-1.5-2,18.3-1.95a1.17,1.17,0,0,0,.88-1.75L388,186.55l16.29,1.71a1.72,1.72,0,0,0,1.25-.83l0.44-.91a1.16,1.16,0,0,0-.42-1.47c-1.59-1.05-3.17-2.12-4.75-3.2-4.08-2.77-8.3-5.64-12.7-8.06-1.64-.91-3.81-0.39-5.9.1-0.69.16-1.37,0.33-2,.43a11.3,11.3,0,0,0-2.16.61v0.24s-0.62,0-.54-0.06c0.24-.06.36-0.12,0.54-0.18v-0.71c0-.33-0.93-0.64-1.17-0.86a2,2,0,0,0-1.28-.31c-6.84.56-11.62,4.36-14.22,11.61L359,183.43a1.26,1.26,0,0,0-1-.05,1.21,1.21,0,0,0-.7.72l-1.39,4.16c-1.41,4.23-2.73,8.23-4.21,12.25a3.85,3.85,0,0,1-1.12,1.17,9.72,9.72,0,0,0-1.47,1.44,11.09,11.09,0,0,0-2.13,3.39c-1,3-1.88,6-2.78,9.07l0.07-1c0.43-5.84.87-11.68,1.2-17.53a8.53,8.53,0,0,1,.35-1.62c0.49-1.8,4.65-4.76.93-6.27,0-.46,3.31-1.25,3.31-1.68V171.42c0-.32-3.5-1.48-3.73-1.7a28.14,28.14,0,0,0-4.19-1.18h0l-3.5,1c-2.61-10.77-5.44-21.39-19.64-25.28a1.34,1.34,0,0,0-1.07.45,1.37,1.37,0,0,0-.4,1.13l0.44,4c0.33,2.94.65,5.82,0.9,8.68a11.13,11.13,0,0,0,1.1,3.5c1,2.2,1.45,3.53.06,5.23-0.67.81-.13,1.78,0.4,2.72l0.29,0.55,4.06,8.28-2.61,1.5a1.19,1.19,0,0,0-.56.76,1.16,1.16,0,0,0,.19.93L332,196.5l-1.12.4a1.17,1.17,0,0,0-.74,1.38l0.75,2.94c0.69,2.71,1.41,5.52,2,8.3a3.06,3.06,0,0,1-.36,1.09,3.44,3.44,0,0,1-1.18-.51c-1.54-2.06-3-4.21-4.45-6.49l-1.81-2.72a1.15,1.15,0,0,0-.84-0.51,1.21,1.21,0,0,0-.93.31,3.14,3.14,0,0,1-2.16,1.1c-1,0-2.07-1.08-3-2.09-1.45-1.63-3-3.08-4.64-4.62-0.74-.69-1.48-1.38-2.22-2.11a1.09,1.09,0,0,0-.9-0.32,1.14,1.14,0,0,0-.84.45L308.08,195,299,190.18a1.19,1.19,0,0,0-1.58.48l-1.59,3-14.38-1.69a1.16,1.16,0,0,0-1.21.69,19.13,19.13,0,0,0-.68,1.88,5.52,5.52,0,0,1-.88,2c-6.87,3.6-8.17,10.24-8.9,16.73a1.18,1.18,0,0,0,.45,1.06,1.13,1.13,0,0,0,1.14.16l16-6.36,0.18,0.43a1.15,1.15,0,0,0,1.22.7l15.52-1.81-0.3,1.4a1.15,1.15,0,0,0,.77,1.35l16.39,5.59L319.8,217a1.16,1.16,0,0,0-.31,1.23,8.16,8.16,0,0,0,3.06,3.66c1.3,1,2.39,1.92,2.71,3.43l-13-6.92a1.17,1.17,0,0,0-1.72,1l0,0.51-0.65.27a5,5,0,0,1-2.29.67c-3-.2-5.95-0.58-9.07-1l-3.71-.47a1.14,1.14,0,0,0-.9.27,1.19,1.19,0,0,0-.41.84l-0.13,2.75-19,8a1.17,1.17,0,0,0-.31,2c2.31,2,1.78,2.82.38,5-4.7,7.31-8.81,14.32-12.58,21.43a1.17,1.17,0,0,0,.08,1.23,1.19,1.19,0,0,0,1.13.48c10.24-1.64,16.92-6,20.87-13.66a4.38,4.38,0,0,0,2.72,1.27c1.86,0.15,3.21-1.36,4.3-2.53l0.42-.44a60.45,60.45,0,0,0,4.26-5.23l0.92-1.23c2,2.28,4.61,1.29,6.45.61l12.61-4.37c1.52,2.55,4.12,2.42,6,2.32,0.58,0,1.12-.06,1.66,0l-2.49,1.46a1.18,1.18,0,0,0-.54,1.31l0.58,2.21-14.79,5.23a1.16,1.16,0,0,0-.72.74,1.18,1.18,0,0,0,.16,1l2.68,3.88-7.6,2.81c-3.84,1.43-6,6.37-4.61,10.57a6.73,6.73,0,0,1-.25,4c-0.83,2.4-1.86,4.79-2.94,7.32-0.48,1.1-1,2.23-1.45,3.42a1.15,1.15,0,0,0,.23,1.25,1.17,1.17,0,0,0,1.23.31c6.77-2.33,10-7.18,13.17-11.88,0.35-.53.69-1,1.05-1.56,5.25,1.67,7.13-.81,10.94-10,2.49,1.1,4.08-.84,5.08-2.05,0.22-.27.44-0.53,0.67-0.77a1.09,1.09,0,0,0,.16-1.19l1.34-.51C295.7,310.78,288.16,372,288.34,421.21c-9.87-.71-19.92-1.18-30.22-1.18-3.08,0-6.07.16-9.12,0.23-1.69-50.45-12.91-142.41-67.47-214.8l1.15,0.25a1.09,1.09,0,0,0,.33,1.15c0.26,0.21.51,0.43,0.77,0.66,1.19,1.06,3.07,2.71,5.34,1.27,5.16,8.56,7.42,10.66,12.32,8.27,0.43,0.45.85,0.91,1.27,1.37,3.82,4.17,7.77,8.49,14.81,9.77a1.21,1.21,0,0,0,1.18-.49,1.16,1.16,0,0,0,0-1.27c-0.64-1.06-1.27-2.07-1.88-3.05-1.48-2.38-2.88-4.61-4.08-6.9a6.83,6.83,0,0,1-.84-3.89c0.74-4.37-2.14-8.93-6.15-9.76l-7.94-1.63,2.07-4.24a1.16,1.16,0,0,0-.83-1.66l-15.4-3,0.25-2.27a1.16,1.16,0,0,0-.73-1.22l-2.68-1.07c0.52-.1,1.07-0.16,1.64-0.22,1.93-.2,4.49-0.46,5.61-3.19l3.13,0.57,9.13,1.68,0.87,0.17c1.89,0.41,4.63,1,6.28-1.57l1.07,1a57.5,57.5,0,0,0,5,4.56l0.47,0.37c1.25,1,2.83,2.2,4.64,1.86a4.34,4.34,0,0,0,2.49-1.67c5.05,7,12.32,10.29,22.69,10.37h0a1.17,1.17,0,0,0,.94-1.86c-4.83-6.52-10-12.83-15.84-19.49-1.54-1.74-2.17-2.46-.19-4.79a1.2,1.2,0,0,0,.22-1.11,1.18,1.18,0,0,0-.83-0.78l-20-5L207.38,166a1.16,1.16,0,0,0-.53-0.76,1.24,1.24,0,0,0-.92-0.13l-3.61,1c-3,.87-5.88,1.69-8.8,2.33a5.81,5.81,0,0,1-2.38-.32l-0.69-.17-0.09-.47a1.18,1.18,0,0,0-.73-0.86,1.21,1.21,0,0,0-1.12.16l-11.8,8.8c0.07-1.54,1-2.58,2.16-3.81a8.17,8.17,0,0,0,2.48-4.07,1.16,1.16,0,0,0-.49-1.17l-1.52-1,15.36-8a1.17,1.17,0,0,0,.56-1.45l-0.51-1.33,15.61-.54a1.17,1.17,0,0,0,1.1-.88c0-.15.08-0.31,0.12-0.46l16.77,3.89a1.15,1.15,0,0,0,1.11-.32,1.19,1.19,0,0,0,.29-1.11c-1.69-6.31-4-12.68-11.3-15.21a5.31,5.31,0,0,1-1.19-1.86,17.45,17.45,0,0,0-.93-1.73,1.18,1.18,0,0,0-1.3-.5l-14,3.83-2-2.7a1.18,1.18,0,0,0-1.64-.24l-8.26,6.15-1.75-1.68a1,1,0,0,0-.9-0.32,1.16,1.16,0,0,0-.84.46c-0.62.83-1.25,1.63-1.87,2.42-1.39,1.77-2.71,3.44-3.89,5.26-0.74,1.13-1.64,2.32-2.61,2.51A3.22,3.22,0,0,1,175,151a1.18,1.18,0,0,0-1.73.47l-1.35,2.94c-1.14,2.49-2.22,4.84-3.43,7.11a3.61,3.61,0,0,1-1.11.69,3.08,3.08,0,0,1-.51-1c0.15-2.86.44-5.77,0.72-8.59l0.28-2.94a1.16,1.16,0,0,0-.93-1.26l-1.18-.23,8-15.93a1.17,1.17,0,0,0-.62-1.62l-2.81-1.09,2.76-8.8c0.05-.18.14-0.39,0.22-0.6,0.37-1,.76-2,0-2.72-1.63-1.48-1.35-2.86-.72-5.17a11.14,11.14,0,0,0,.56-3.61c-0.18-2.82-.29-5.64-0.4-8.55l-0.16-4.11A1.18,1.18,0,0,0,172,95a1.16,1.16,0,0,0-1.09-.07c-13.45,6-14.6,17.32-15.55,28.36l-3.49.42a1.16,1.16,0,0,0-.79.45,1.18,1.18,0,0,0-.23.88l0.66,4.37c0.57,3.7,1.11,7.32,1.63,11l0.09,0.6c0.06,0.42.19,1.2,0.21,1.66-3.45,2.05-2.19,4.86-1.43,6.57a9.15,9.15,0,0,1,.58,1.55c1.2,5.71,2.49,11.4,3.8,17.09l0.22,1c-1.33-2.86-2.69-5.73-4.11-8.55a11.6,11.6,0,0,0-2.81-3.21,9.64,9.64,0,0,0-1.45-1,3.75,3.75,0,0,1-1.29-1c-2-3.67-3.89-7.34-5.86-11.22l-2.13-4.17a1.16,1.16,0,0,0-.78-0.6,1.18,1.18,0,0,0-1,.2l-2.13,1.59c-3.64-6.79-8.85-9.88-15.59-9.37a1.15,1.15,0,0,0-.83.43,1.2,1.2,0,0,0-.25.91l0.15,0.94-0.26,0c-2-.21-3.65-0.21-5.63-0.37s-4.35-.37-5.86.79c-4,3.06-7.75,6.54-11.38,9.91-1.39,1.29-2.78,2.58-4.19,3.84a1.17,1.17,0,0,0-.18,1.52l0.66,1a1.22,1.22,0,0,0,1.26.48l15.86-4.14L107.88,149a1.15,1.15,0,0,0,.14,1.11,1,1,0,0,0,1,.49l18.39-.82L126.23,152a1.17,1.17,0,0,0,.44,1.55L140,161.47l-1.89,1.74a1.17,1.17,0,0,0-.16,1.56l5.6,7.5-8.75-3.42a1.17,1.17,0,0,0-1.48.57L132.11,172c-10.84-7.51-20.67-2.72-29.09,2.41a1.19,1.19,0,0,0-.53.74,1.18,1.18,0,0,0,.16.89l1.58,2.5c-0.82.32-1.66,0.6-2.5,0.89-3,1-6.12,2.11-8.06,4.35-2.09,2.42-3,5.76-3.83,9-0.36,1.34-.71,2.68-1.15,3.95l-0.16.41a8.12,8.12,0,0,0-.37,1.15c-0.53,2.43-1,4.86-1.54,7.22l-0.48,2.28a1.15,1.15,0,0,0,.3,1.05,1.18,1.18,0,0,0,1,.35c8.77-1.47,14.73-6.67,20.48-11.7,2-1.71,3.83-3.34,5.78-4.82,3.46,2,5.92.11,7.77-1.28a9.34,9.34,0,0,1,2.1-1.33,51.54,51.54,0,0,0,7.15-3.63l1.87-1.06c1,3.05,3.45,3.55,5.74,3.6a19.8,19.8,0,0,1,5,1l-11.24,2a1.17,1.17,0,0,0-.74,1.85l1.64,2.21c-8.45,2.39-13,8.77-17.33,15-1.33,1.89-2.71,3.85-4.19,5.68a1.16,1.16,0,0,0-.21,1.08,1.17,1.17,0,0,0,.79.78l2.81,0.81-0.37.52a17.88,17.88,0,0,0-2.45,4l-0.31.77c-1,2.41-2.07,5.15-1.34,7.43a98.63,98.63,0,0,0,4.91,11.67c0.7,1.5,1.42,3,2.09,4.52a1.17,1.17,0,0,0,1.11.69l0.9,0a1.18,1.18,0,0,0,1.1-.87l6.26-23.82,3.34,2.09a1.2,1.2,0,0,0,1,.12,1.16,1.16,0,0,0,.72-0.67l5.74-14.28,1.55,0.3a1.17,1.17,0,0,0,1.16-.45l0.49-.67c3.34-4.48,6.33-8.49,10.91-10.81l-3.68,3.79a1.17,1.17,0,0,0,.64,2l2.6,0.45c-0.46.84-.92,1.67-1.4,2.5-3.88,6.87-7.91,14-3.94,22.83a1.17,1.17,0,0,0,1,.69l2.8,0.08c-1.85,12.76,6,19.61,14.75,25.09a1.17,1.17,0,0,0,.62.18,1.15,1.15,0,0,0,.52-0.12,1.18,1.18,0,0,0,.65-1c0.13-1.62.31-3.24,0.49-4.84a71.61,71.61,0,0,0,.68-11.12,72.56,72.56,0,0,0-1.64-11c-0.24-1.19-.48-2.38-0.69-3.57l2.76-.3a1.18,1.18,0,0,0,1-1.37c-0.16-.91-0.28-1.8-0.41-2.67a40.91,40.91,0,0,0-1.18-5.92A36.6,36.6,0,0,0,165,210l-0.33-.67,2,0.44c24.55,34,70,111.21,66.62,211.07-44.28,2.58-83.76,12-113.64,25.77C56.07,404.29,14,332,14,250,14,119.89,119.89,14,250,14S486,119.89,486,250C486,329.21,446.69,399.39,386.62,442.2Z"/></svg>