<svg id="Layer_1" data-name="Layer 1" xmlns="http://www.w3.org/2000/svg" viewBox="0 0 500 500"><title>mkrb-icon</title><path class="cls-1" d="M250,500C112.15,500,0,387.85,0,250S112.15,0,250,0,500,112.15,500,250,387.85,500,250,500Zm0-486C119.89,14,14,119.89,14,250S119.89,486,250,486,486,380.11,486,250,380.11,14,250,14ZM139.33,234q29.25,8.9,51.41,22.39A209.66,209.66,0,0,1,203,209.75q-25-23.21-62.41-44.46Q136.51,203.07,139.33,234Zm98.44,142.4a103.79,103.79,0,0,1-72.94-6.75c-39.94-19.54-70.58-64.43-91.14-133.52a374.68,374.68,0,0,1,51.88,9.73q4,1,7.85,2.21c2.72,0.81,5.5,1.64,8.11,2.51a203.93,203.93,0,0,1,48,23h0c-1,12.75.88,25,3.83,36.63a118.1,118.1,0,0,0,29,52.71c2.1,2.2,4.16,4.19,6.15,6A116.54,116.54,0,0,0,237.77,376.36ZM426.16,236.09c-20.56,69.09-51.31,114-91.25,133.52A104,104,0,0,1,264,376.92a115.9,115.9,0,0,0,10.63-8.71q3.16-2.91,6.49-6.46h0a118,118,0,0,0,28.06-51.61,134.69,134.69,0,0,0,3.89-38.48q19.31-12.52,45.16-21.12c2.61-.87,5.5-1.7,8.21-2.51s5.15-1.52,8.15-2.23h0C389.58,241.59,407.35,238.36,426.16,236.09ZM297.85,283a116.55,116.55,0,0,1-3.34,23.1,103.25,103.25,0,0,1-31.3,51.8c-1.28,1.15-2.53,2.22-3.71,3.18-1.47,1.21-2.85,2.27-4.12,3.2l-0.28.2c-1.09.79-2.08,1.48-3,2.06l-0.24.16-0.67.44c-1-.64-2.16-1.43-3.48-2.37l-1.45-1.06-0.88-.67-1.17-.92c-1.35-1.06-2.79-2.26-4.29-3.59l-0.47-.42a103.44,103.44,0,0,1-31.64-52c-1.65-6.59-2.27-13.39-3.27-20.42h0V275.44h0c0-3.09.15-6.21,0.41-9.38a180.12,180.12,0,0,1,9.84-44.49q1.35-3.9,2.89-7.85c1-2.61,2.07-5.23,3.19-7.88a359.78,359.78,0,0,1,30.33-55.5,361.63,361.63,0,0,1,29.42,53.41q1.74,4,3.29,7.88t2.94,7.74A184.14,184.14,0,0,1,297.34,264q0.45,4.62.58,9.14C298,276.5,298,279.76,297.85,283Zm61.2-117.7q-35.8,20.36-60.31,42.54a212.87,212.87,0,0,1,12.77,47A227.16,227.16,0,0,1,360.3,234Q363.12,203.09,359.05,165.29Z"/></svg>