<svg id="Layer_1" data-name="Layer 1" xmlns="http://www.w3.org/2000/svg" viewBox="0 0 500 500"><title>mkrb-icon</title><path class="cls-1" d="M250,500C112.15,500,0,387.85,0,250S112.15,0,250,0,500,112.15,500,250,387.85,500,250,500Zm0-486C119.89,14,14,119.89,14,250S119.89,486,250,486,486,380.11,486,250,380.11,14,250,14ZM376.76,244.42q0-13.56-8.1-22.32T344.87,212q-15.68-1.33-24.31,1.2a61,61,0,0,1-17.14,2.52q8.51-5.58,29-10.1t45.18-23.92a66.7,66.7,0,0,0-24.18-1.86q19.93-11.69,27.64-22.59a66,66,0,0,0-20.46,0q10.36-15.95,12-29.76-13.82,1.6-29.77,12a65.79,65.79,0,0,0,0-20.47q-10.89,7.71-22.59,27.64a66.63,66.63,0,0,0-1.86-24.19q-19.4,24.72-23.92,45.18t-10.1,29a60.7,60.7,0,0,1,2.52-17.14q2.53-8.63,1.2-24.31t-10.1-23.78q-8.77-8.11-22.32-8.11a245.25,245.25,0,0,1,7.57,42.92q2,22.46-13.42,61.79-15.14-39.33-13-61.92a236.89,236.89,0,0,1,7.44-42.78q-13.56,0-22.32,8.11t-10.1,23.78q-1.33,15.68,1.2,24.31a60.85,60.85,0,0,1,2.52,17.14q-5.58-8.5-10.1-29t-23.92-45.18a66.72,66.72,0,0,0-1.86,24.19Q167.88,126.7,157.25,119a66,66,0,0,0,0,20.47q-15.95-10.37-29.76-12,1.59,13.82,12,29.76a66,66,0,0,0-20.46,0q7.71,10.89,27.64,22.59a66.7,66.7,0,0,0-24.18,1.86q24.72,19.4,45,23.92t28.83,10.1a60.92,60.92,0,0,1-17.14-2.52q-8.64-2.53-24.19-1.2t-23.65,10.1q-8.11,8.77-8.1,22.32A237,237,0,0,1,165.76,237q22.59-2.13,61.92,13.29Q188.35,265.41,166,263.42a245.1,245.1,0,0,1-42.79-7.57q0,13.55,8.1,22.32T155,288.27q15.55,1.33,24.19-1.2a60.78,60.78,0,0,1,17.14-2.52q-8.5,5.58-28.83,10.1t-45,23.92a66.7,66.7,0,0,0,24.18,1.86Q126.69,332.12,119,343a66,66,0,0,0,20.46,0q-10.36,15.95-12,29.5,13.82-1.6,29.76-11.69a64.31,64.31,0,0,0,0,20.2q10.63-7.71,22.32-27.37a65,65,0,0,0,1.86,23.92q19.4-24.45,23.92-44.91t10.1-29a60.8,60.8,0,0,1-2.52,17.14q-2.53,8.64-1.2,24.32t10.1,23.65q8.77,8,22.32,8a239,239,0,0,1-7.58-42.65q-2-22.46,13.42-61.79,15.15,39.33,13,61.92a231.34,231.34,0,0,1-7.44,42.52q13.56,0,22.32-8T288,345.14q1.33-15.68-1.2-24.32a60.65,60.65,0,0,1-2.52-17.14q5.58,8.5,10.1,29t23.92,44.91a64.9,64.9,0,0,0,1.86-23.92q11.7,19.66,22.59,27.37a64.07,64.07,0,0,0,0-20.2q16,10.1,29.77,11.69-1.59-13.56-12-29.5A66,66,0,0,0,381,343q-7.71-10.89-27.64-22.59a66.7,66.7,0,0,0,24.18-1.86q-24.72-19.4-45.18-23.92t-29-10.1a60.83,60.83,0,0,1,17.14,2.52q8.63,2.53,24.31,1.2t23.79-10.1q8.1-8.77,8.1-22.32A237.28,237.28,0,0,1,334,263.29q-22.59,2.12-61.92-13.29,39.33-15.15,61.79-13.15a245.23,245.23,0,0,1,42.92,7.57"/></svg>