<svg id="Layer_1" data-name="Layer 1" xmlns="http://www.w3.org/2000/svg" viewBox="0 0 500 500"><title>mkrb-icon</title><path class="cls-1" d="M138.63,500q-5.6,0-11.42-.49l-11.67-1,10.17-5.81c34-19.41,59.42-51.86,75.62-96.43,14.17-37.17,21-70.83,20.41-100.28-12.74,11.25-18.85,22.8-18.17,34.41,0.9,15.45-3.57,29.1-13.29,40.6l-2.69,3.17-2.8-3.08q-0.78-.86-1.48-1.74c-2,8.27-5.52,14.86-10.61,19.67l-2.42,2.29-2.5-2.21a14.72,14.72,0,0,1-1.5-1.53,46.1,46.1,0,0,1-9.19,14l-2.17,2.27L152.35,402a15.7,15.7,0,0,1-2.53-2.19,40.32,40.32,0,0,1-8.54,12.43l-2.2,2.19-2.51-1.82a21.69,21.69,0,0,1-3.66-3.29,33.43,33.43,0,0,1-9.85,10.9l-3.14,2.27-2.08-3.27A36.27,36.27,0,0,1,116,416a30.63,30.63,0,0,1-15.17,11.36l-3.16,1.14-1.39-3.05a38.68,38.68,0,0,1-1.67-4.25,38.57,38.57,0,0,1-20.14,7.39l-4.24.32,0.32-4.24a38.39,38.39,0,0,1,7.4-20.09,38.42,38.42,0,0,1-4.25-1.65l-3.07-1.4,1.14-3.17A30.56,30.56,0,0,1,83.11,383.2a36.56,36.56,0,0,1-3.3-1.86l-3.27-2.08,2.27-3.14a33.31,33.31,0,0,1,10.92-9.81,21.72,21.72,0,0,1-3.29-3.64l-1.85-2.53,2.22-2.21a40.82,40.82,0,0,1,12.46-8.52,15.85,15.85,0,0,1-2.2-2.5l-1.82-2.59,2.3-2.18a46.32,46.32,0,0,1,14-9.15,16.55,16.55,0,0,1-1.52-1.48L107.8,329l2.32-2.44C115,321.51,121.55,318,129.84,316c-0.58-.46-1.16-1-1.73-1.46l-3.09-2.8,3.19-2.69c11.53-9.7,25.24-14.18,40.67-13.26,11.54,0.64,23.24-5.44,34.49-18.13-29.51-.54-63.27,6.24-100.49,20.36-44.74,16.21-77.09,41.58-96.19,75.43l-5.8,10.28-1-11.77c-3.14-36.52,8.38-66.71,34.23-89.73,20.06-16,41.49-26.81,64-32.35-22.53-5.72-43.95-16.62-63.88-32.53-26-23.13-37.53-53.31-34.39-89.85l1-11.76L6.69,126c19.11,33.85,51.45,59.23,96.15,75.42,37.25,14.13,71,20.88,100.54,20.36-11.27-12.68-22.77-18.82-34.49-18.1-15.48.85-29.17-3.59-40.67-13.28l-3.2-2.69,3.1-2.8c0.57-.51,1.14-1,1.72-1.45-8.28-2-14.88-5.49-19.71-10.55l-2.33-2.44L110,168a15.41,15.41,0,0,1,1.53-1.48,46.47,46.47,0,0,1-14-9.15l-2.29-2.17,1.82-2.59a15.21,15.21,0,0,1,2.21-2.52,40.61,40.61,0,0,1-12.47-8.52l-2.21-2.21,1.85-2.53a21.88,21.88,0,0,1,3.28-3.62,33.56,33.56,0,0,1-10.92-9.81l-2.28-3.14,3.27-2.08a33.89,33.89,0,0,1,3.3-1.86,30.54,30.54,0,0,1-11.38-15.13L70.59,98l3.08-1.38A40.52,40.52,0,0,1,77.89,95,37.44,37.44,0,0,1,70.51,75.4l-0.34-4.25,4.26,0.32a40,40,0,0,1,20.14,7.1,32,32,0,0,1,1.72-4.08l1.4-2.79,3,1A29,29,0,0,1,116,83.59a34.58,34.58,0,0,1,1.88-3.34L119.91,77,123,79.25a33.63,33.63,0,0,1,9.85,10.91,22.28,22.28,0,0,1,3.65-3.3L139.07,85l2.21,2.21a40.54,40.54,0,0,1,8.54,12.45,15.59,15.59,0,0,1,2.53-2.21l2.58-1.81,2.17,2.28a46.28,46.28,0,0,1,9.18,14,15.25,15.25,0,0,1,1.5-1.54l2.5-2.23,2.43,2.31c5.09,4.82,8.64,11.42,10.61,19.69,0.47-.59,1-1.17,1.48-1.75l2.8-3.08,2.69,3.18c9.71,11.5,14.19,25.15,13.29,40.59-0.67,11.61,5.43,23.15,18.17,34.39,0.6-29.42-6.24-63.1-20.39-100.23-16.23-44.27-41.67-76.54-75.64-96L115.56,1.5l11.65-1c36.61-3.14,66.88,8.52,90,34.67,16,20,26.89,41.32,32.44,63.6,5.74-22.3,16.67-43.58,32.62-63.48C305.4,9,335.65-2.66,372.29.51l11.65,1L373.79,7.31c-34,19.41-59.42,51.68-75.66,95.93-14.16,37.18-21,70.86-20.41,100.27,12.73-11.23,18.84-22.78,18.18-34.4-0.9-15.42,3.57-29.07,13.31-40.59l2.69-3.18,2.79,3.08c0.52,0.57,1,1.15,1.48,1.74,2-8.28,5.51-14.88,10.59-19.69l2.42-2.31,2.51,2.22a14.75,14.75,0,0,1,1.5,1.54,46.32,46.32,0,0,1,9.18-14l2.16-2.28,2.58,1.81a15,15,0,0,1,2.54,2.21,40.52,40.52,0,0,1,8.55-12.45L360.41,85l2.52,1.83a21.65,21.65,0,0,1,3.65,3.3,33.73,33.73,0,0,1,9.87-10.91L379.59,77l2.07,3.27a34,34,0,0,1,1.87,3.33,29.05,29.05,0,0,1,15.27-10.94l3-1,1.41,2.8a32.26,32.26,0,0,1,1.71,4.08,40,40,0,0,1,20.15-7.1l4.26-.32L429,75.4A37.5,37.5,0,0,1,421.59,95a40.52,40.52,0,0,1,4.22,1.64L428.88,98l-1.14,3.17a30.49,30.49,0,0,1-11.38,15.13,34.85,34.85,0,0,1,3.3,1.86l3.27,2.08-2.27,3.14a33.32,33.32,0,0,1-10.91,9.82,22.06,22.06,0,0,1,3.29,3.61l1.85,2.53-2.22,2.21a40.32,40.32,0,0,1-12.47,8.52,15.63,15.63,0,0,1,2.21,2.52l1.82,2.58-2.29,2.17a46.23,46.23,0,0,1-14,9.15,15.56,15.56,0,0,1,1.53,1.49l2.23,2.51-2.32,2.43c-4.82,5.06-11.43,8.59-19.7,10.55,0.58,0.46,1.15.94,1.72,1.44l3.12,2.8-3.21,2.7c-11.51,9.69-25.19,14.13-40.68,13.28-11.63-.62-23.2,5.4-34.48,18.1,29.34,0.6,63.29-6.23,100.49-20.34,44.73-16.2,77.26-41.59,96.73-75.47l5.81-10.1,1,11.61c3.13,36.54-8.57,66.74-34.8,89.74-20,16-41.44,26.81-64,32.34,22.53,5.73,43.93,16.62,63.86,32.53,26.34,23.14,38,53.33,34.92,89.85l-1,11.61-5.81-10.1c-19.48-33.88-52-59.26-96.69-75.43-37.27-14.13-71-20.94-100.55-20.38,11.27,12.7,22.81,18.67,34.49,18.13,15.44-.9,29.14,3.56,40.68,13.26l3.2,2.7-3.11,2.8c-0.56.51-1.14,1-1.72,1.45,8.29,2,14.89,5.49,19.7,10.55l2.32,2.43-2.23,2.51a15,15,0,0,1-1.52,1.49,46,46,0,0,1,14,9.16l2.29,2.17-1.82,2.59a16.35,16.35,0,0,1-2.2,2.5,40.6,40.6,0,0,1,12.46,8.52l2.22,2.21L413,362.68a22.22,22.22,0,0,1-3.29,3.63,33.14,33.14,0,0,1,10.91,9.81l2.26,3.14-3.26,2.08a34.64,34.64,0,0,1-3.3,1.86,30.37,30.37,0,0,1,11.38,15.11l1.14,3.17-3.06,1.39a38.34,38.34,0,0,1-4.25,1.67,38.31,38.31,0,0,1,7.4,20.07l0.33,4.25-4.25-.32a38.54,38.54,0,0,1-20.14-7.39,38.23,38.23,0,0,1-1.67,4.24l-1.39,3.06-3.17-1.14A30.55,30.55,0,0,1,383.53,416a33.89,33.89,0,0,1-1.86,3.31l-2.07,3.27-3.15-2.27a33.78,33.78,0,0,1-9.87-10.9,21.65,21.65,0,0,1-3.66,3.29l-2.52,1.82-2.2-2.19a40.27,40.27,0,0,1-8.55-12.44,15.26,15.26,0,0,1-2.53,2.2l-2.58,1.81-2.17-2.27a46,46,0,0,1-9.18-14,15.38,15.38,0,0,1-1.51,1.54l-2.5,2.21L326.77,389c-5.08-4.8-8.62-11.39-10.59-19.67q-0.7.88-1.48,1.74l-2.79,3.09L309.22,371c-9.73-11.51-14.21-25.17-13.31-40.6,0.66-11.61-5.46-23.16-18.18-34.41-0.6,29.44,6.24,63.1,20.4,100.22,16.25,44.65,41.7,77.1,75.66,96.49L384,498.51l-11.67,1c-36.64,3.05-66.9-8.55-90-34.68-16-20-26.89-41.39-32.43-63.88-5.74,22.48-16.67,43.85-32.63,63.75C196.56,488.19,170.16,500,138.63,500Zm89.66-218.53,0.44,6.82c2.06,32.18-4.86,69.36-20.55,110.53C193,440.49,169.95,472,139.5,492.69c29-.24,53.23-11.21,72.18-32.7,19.69-24.56,31.4-51.57,34.69-80.11l3.82-33.1,3.44,33.14c3,28.56,14.5,55.55,34.29,80.2C306.77,481.49,331,492.45,360,492.69c-30.44-20.65-53.52-52.19-68.71-93.93-15.67-41.13-22.59-78.31-20.53-110.47l0.44-6.82,5.43,4.16c18.54,14.24,27.48,29.44,26.58,45.19-0.7,12.09,2.18,22.55,8.78,31.83a18,18,0,0,0,2.52-6.73L320,320.44l1.8,35.85c0.51,10.39,2.95,18.53,7.22,24.26a14.49,14.49,0,0,0,.73-6.11l7.25-.72a40.75,40.75,0,0,0,8.24,20,10,10,0,0,0,1.25-5.28l7.25-.58a34.65,34.65,0,0,0,7.35,16.76,8.36,8.36,0,0,0,2.19-4.84l2-22.33,5.19,21.8a24.68,24.68,0,0,0,7,12.43,19.1,19.1,0,0,0,1.54-5.82L380.52,389l5.57,16c2.28,6.57,6.17,11.21,11.82,14.1a15.84,15.84,0,0,0,.89-4.79v-8.78l6.23,6.2a31.69,31.69,0,0,0,16,8.93,31.5,31.5,0,0,0-9-15.93l-6.26-6.24h8.84a16,16,0,0,0,4.82-.89c-2.9-5.64-7.55-9.5-14.13-11.77l-16.08-5.53,16.94-1.55a19.08,19.08,0,0,0,5.86-1.53,24.8,24.8,0,0,0-12.46-7L377.94,365l22.16-2A8.44,8.44,0,0,0,405,360.8a35,35,0,0,0-16.79-7.33l0.58-7.25A10.06,10.06,0,0,0,394,345a40.77,40.77,0,0,0-20-8.19l0.72-7.26a14.66,14.66,0,0,0,6.13-.72c-5.75-4.27-13.92-6.69-24.34-7.2l-36.06-1.8,35.69-5.47a18.11,18.11,0,0,0,6.77-2.5c-9.32-6.58-19.84-9.43-31.92-8.74-15.55,1.09-31-8-45.29-26.51l-4.2-5.44,6.86-.44c32.21-2.06,69.51,4.85,110.8,20.51,41.78,15.12,73.4,38.15,94.14,68.53-0.25-28.9-11.24-53.09-32.79-72-24.61-19.64-51.68-31.32-80.33-34.6l-33.35-3.83,33.4-3.43c28.63-2.94,55.68-14.45,80.4-34.2,21.44-18.82,32.43-43,32.67-71.91-20.74,30.38-52.36,53.41-94.19,68.57C357.91,224,320.62,230.87,288.38,228.8l-6.86-.43,4.2-5.44c14.31-18.49,29.6-27.41,45.29-26.5,12.23,0.68,22.62-2.18,31.91-8.75a18.29,18.29,0,0,0-6.77-2.5l-35.36-5.49,35.74-1.76c10.42-.51,18.57-2.93,24.33-7.2a14.42,14.42,0,0,0-6.12-.72L374,162.75a41,41,0,0,0,20-8.21,10,10,0,0,0-5.28-1.25L388.17,146A34.31,34.31,0,0,0,405,138.72a8.44,8.44,0,0,0-4.86-2.17l-22.19-2,21.68-5.18a24.9,24.9,0,0,0,12.45-7,18.88,18.88,0,0,0-5.85-1.53l-16.91-1.53,16-5.56c6.6-2.28,11.24-6.15,14.14-11.78a16,16,0,0,0-4.82-.89h-8.83l6.25-6.24A31.61,31.61,0,0,0,421,79.4a32.45,32.45,0,0,0-16,8.52l-6.16,5.83V85.26A13.72,13.72,0,0,0,398,80.8c-5.67,2.65-9.58,7.18-11.86,13.76l-5.57,16L379,93.69a19.09,19.09,0,0,0-1.53-5.82,24.7,24.7,0,0,0-7.05,12.42L365.24,122l-2-22.25a8.4,8.4,0,0,0-2.19-4.84,34.21,34.21,0,0,0-7.35,16.76l-7.25-.58a10.06,10.06,0,0,0-1.25-5.28,40.88,40.88,0,0,0-8.24,20l-7.25-.72A14.47,14.47,0,0,0,329,119c-4.29,5.75-6.71,13.89-7.22,24.28l-1.8,36-5.47-35.63a17.8,17.8,0,0,0-2.52-6.75c-6.61,9.29-9.49,19.75-8.78,31.83,0.9,15.77-8,31-26.58,45.18L271.19,218l-0.44-6.82c-2.06-32.13,4.86-69.32,20.55-110.52C306.48,59.31,329.57,28,360,7.31,331,7.55,306.76,18.51,287.8,40c-19.69,24.55-31.39,51.39-34.68,79.64L249.3,152.4l-3.44-32.8c-3-28.2-14.49-55-34.29-79.73C192.71,18.5,168.47,7.55,139.5,7.31c30.45,20.65,53.52,52,68.69,93.41,15.68,41.15,22.59,78.34,20.54,110.48L228.29,218l-5.42-4.16c-18.56-14.23-27.5-29.43-26.59-45.18,0.7-12.1-2.17-22.56-8.76-31.83A18,18,0,0,0,185,143.6l-5.46,35.63-1.8-36c-0.52-10.38-3-18.53-7.25-24.28a14.46,14.46,0,0,0-.72,6.11l-7.26.73a40.28,40.28,0,0,0-8.24-20,10,10,0,0,0-1.26,5.29l-7.25.58a34.16,34.16,0,0,0-7.34-16.76,8.34,8.34,0,0,0-2.19,4.84l-2,22.21L129,100.29a24.81,24.81,0,0,0-7-12.42,18.88,18.88,0,0,0-1.53,5.82L119,110.53l-5.55-16c-2.29-6.58-6.19-11.11-11.88-13.76a13.72,13.72,0,0,0-.86,4.47v8.48l-6.16-5.83a32.4,32.4,0,0,0-16-8.52A31.6,31.6,0,0,0,87.4,94.85l6.24,6.23H84.82A15.86,15.86,0,0,0,80,102c2.89,5.62,7.54,9.49,14.13,11.77l16,5.56-16.89,1.53a19.2,19.2,0,0,0-5.84,1.53,25,25,0,0,0,12.46,7l21.71,5.17-22.22,2a8.44,8.44,0,0,0-4.86,2.17A34.39,34.39,0,0,0,111.3,146l-0.58,7.25a10.06,10.06,0,0,0-5.28,1.25,41.12,41.12,0,0,0,20,8.22L124.75,170a14.26,14.26,0,0,0-6.13.72c5.76,4.26,13.92,6.68,24.31,7.2l35.64,1.76-35.26,5.49a18.35,18.35,0,0,0-6.74,2.51c9.28,6.57,19.79,9.44,31.89,8.74,16-.88,31,8,45.29,26.5l4.19,5.44-6.85.43c-32.25,2.06-69.53-4.84-110.8-20.5C58.56,193.18,27.12,170.2,6.67,139.9c0.23,28.87,11.06,53,32.28,71.9,24.61,19.63,51.69,31.31,80.33,34.58l33.34,3.8-33.38,3.46c-28.63,3-55.7,14.47-80.44,34.2-21.09,18.78-31.9,42.92-32.14,71.77,20.44-30.3,51.89-53.29,93.67-68.42,41.23-15.65,78.44-22.58,110.75-20.49l6.84,0.44-4.19,5.43c-14.24,18.5-29.39,27.65-45.28,26.52-12.12-.64-22.6,2.17-31.91,8.74a17.9,17.9,0,0,0,6.75,2.5l35.58,5.47-36,1.8c-10.4.51-18.56,2.94-24.32,7.2a14.59,14.59,0,0,0,6.14.73l0.72,7.26a40.9,40.9,0,0,0-20,8.19,10,10,0,0,0,5.28,1.25l0.58,7.25a34.44,34.44,0,0,0-16.79,7.33A8.44,8.44,0,0,0,99.38,363l22.18,2L99.9,370.17a24.94,24.94,0,0,0-12.46,7,19.3,19.3,0,0,0,5.84,1.54l16.91,1.55-16.05,5.53C87.55,388,82.9,391.91,80,397.54a16,16,0,0,0,4.81.89h8.83l-6.25,6.24a31.49,31.49,0,0,0-8.94,15.93,31.69,31.69,0,0,0,16-8.93l6.23-6.2v8.78a15.53,15.53,0,0,0,.9,4.79c5.67-2.89,9.55-7.54,11.84-14.1L119,389l1.54,16.81a19.2,19.2,0,0,0,1.53,5.83,24.83,24.83,0,0,0,7-12.43l5.19-21.76,2,22.28a8.29,8.29,0,0,0,2.18,4.84,34.69,34.69,0,0,0,7.35-16.76L153,388.4a10,10,0,0,0,1.26,5.28,40.8,40.8,0,0,0,8.24-20l7.26,0.73a14.5,14.5,0,0,0,.72,6.11c4.3-5.73,6.73-13.87,7.25-24.26l1.79-35.85L185,355.92a18,18,0,0,0,2.51,6.74c6.6-9.27,9.47-19.73,8.76-31.84-0.92-15.73,8-30.94,26.58-45.19Z"/></svg>