<svg id="Layer_1" data-name="Layer 1" xmlns="http://www.w3.org/2000/svg" viewBox="0 0 500 500"><title>mkrb-icon</title><path class="cls-1" d="M250,0.43C112.38,0.43.42,112.38,0.42,250S112.38,499.57,250,499.57,499.58,387.61,499.58,250,387.62,0.43,250,.43Zm0,485.13C120.11,485.56,14.44,379.89,14.44,250S120.11,14.44,250,14.44,485.56,120.11,485.56,250,379.89,485.56,250,485.56ZM371.91,239.23c-15.14,8.88-42.54,26-47.63,29.15s-13.7,8.53-14.36,7.58,14.82-23.41,10.78-45.12-26.22-21-26.22-21,8.9-7.14,13.7-22.81a47,47,0,0,0,.49-27.41c-3-11.57-15-19.27-24.09-23s-17.81-9.09-30.56-11.27-34.31-.92-48.47,2.92A42.22,42.22,0,0,0,179.24,150c-3.66,7.43.57,11.93,4.72,12.45s13.37-11.32,31.58-18.77,35.61-2.94,41.92-1.54,20.47,5.2,28.88,18.19a38.19,38.19,0,0,1,5.85,17.33A25.45,25.45,0,0,1,284.87,198c-9.73,10.32-23.34,17.51-38.82,23.82s-28.6,15.18-37.8,21.36S186.12,258,178.59,263.68s-31,24-37.83,29.43c-6.15,4.94-18.63,19.14-23.33,25.87s-6.86,11.13-7.12,13.56-1.7,24.29,29.32,19.21c20.27-3.31,34.29-17,50.46-33.06,10.51-10.43,22.33-21.8,32.07-31.1,18.28-17.45,36.62-39,46.56-50.39,3.9-4.48,6-7.52,7-7.95,2.21-.89,11.57-3,18.15-2.17,4.86,0.61,7.41,3.78,8,7.4,2.08,13.42-10.81,36.73-15.65,44.11s-16.51,12.8-17.22,17.17,3.51,12.52,14.91,9.84c8.12-1.9,33.48-17.95,47.12-26.26a44.78,44.78,0,0,1,8.71-4.37S332,287.09,332,297.75c0,4.84.35,10.47,8.11,13,6.13,2,13.26-.49,19.72-3,7.7-2.95,15.48-7.82,21-11.72a71,71,0,0,0,7.7-6c0.63-.82-1.86-3.67-2.85-4.45s-5.2-1.18-6.78,0-7.45,6.14-13.83,9.67-14.73,5.65-15.75,3.26,8.53-15.53,14.2-22.6,16.7-18.45,19.56-20.62c1.79-1.35,8.72-5.74,12.75-10.56,2.42-2.9,3.77-6.5,3.28-9.34C397.81,227.83,387,230.33,371.91,239.23ZM227.17,260.31c-13.21,14.37-35.26,35.49-46.1,45-9.62,8.41-24.37,21.9-36.14,27.71-8.4,4.14-15.89,2.17-16.17,1.71-0.41-.69,8.33-12.57,19.39-24.27a205.25,205.25,0,0,1,21-18.93c12.85-10,40.53-28.83,49.29-34.35s19.44-11.74,19.45-11.09C237.89,246.29,234,252.85,227.17,260.31Z"/></svg>