<svg id="Layer_1" data-name="Layer 1" xmlns="http://www.w3.org/2000/svg" viewBox="0 0 500 500"><title>mkrb-icon</title><path class="cls-1" d="M247.15,123.82a67.37,67.37,0,1,0,67.37,67.37A67.37,67.37,0,0,0,247.15,123.82ZM280,233.16a52.78,52.78,0,0,1-32.89,11.35A53.32,53.32,0,1,1,280,233.16ZM250,0C112.15,0,0,112.15,0,250S112.15,500,250,500,500,387.85,500,250,387.85,0,250,0ZM377.63,448.31c-27.89-23.25-69.44-38.8-116.7-40.62l0.88-64.53c2.72-38,24.68-72.08,30.6-80.65-8.22,7.66-29.69,16.41-44.5,16.92-14.81-.51-37.44-8.59-45.32-16.18,4.89,6.82,27.81,40.68,30.62,79.91l0.62,65c-44.6,3.24-83.5,18.76-109.77,41.24C58,407.52,14,333.82,14,250,14,119.89,119.89,14,250,14S486,119.89,486,250C486,333.1,442.74,406.26,377.63,448.31Z"/></svg>