<svg id="Layer_1" data-name="Layer 1" xmlns="http://www.w3.org/2000/svg" viewBox="0 0 500 500"><title>mkrb-icon</title><path class="cls-1" d="M250,284.36h0ZM500,250c0,137.85-112.15,250-250,250S0,387.85,0,250,112.15,0,250,0,500,112.15,500,250Zm-14,0C486,119.89,380.11,14,250,14S14,119.89,14,250c0,98.81,61.08,183.58,147.44,218.67,0.9-7.6,1.81-15.21,2.73-22.67,9.66-79,8.66-107.15,8.66-107.15H162.64V317.53c0-7.67-22.6-29.84-22.6-29.84l7.91-178.14H160.3v134.7s3.39,11.24,10.79,11.24c6.23,0,7.58-7.3,7.58-12.42V109.55h13.12V243.08c0,5.11,1.34,12.42,7.58,12.42,7.41,0,10.8-11.24,10.8-11.24V109.55h11.37l7.9,178.14s-21.62,22.17-21.62,29.84v21.31H197.59s-1,28.16,8.66,107.15c1.47,12,2.95,24.35,4.37,36.62a233,233,0,0,0,81.16-.43c1.27-12.12,2.59-24.29,3.91-36.19,0,0,5.43-31.84-.24-50.59,0,0-2.05-17.62-17-17.62,0,0-11.31-59.1,0-158.56s56.07-114.81,56.07-114.81,28.28,0.57,25.19,19.33S339.56,333.5,343.68,377.84c0,0-7.78.21-10.27,17.57-2.81,19.53-.24,50.59-0.24,50.59,0.87,7.82,1.73,15.8,2.58,23.76C423.57,435.37,486,349.86,486,250Z"/></svg>