<svg id="Layer_1" data-name="Layer 1" xmlns="http://www.w3.org/2000/svg" viewBox="0 0 500 500"><title>mkrb-icon</title><path class="cls-1" d="M250,0C112.15,0,0,112.15,0,250S112.15,500,250,500,500,387.85,500,250,387.85,0,250,0ZM366.67,455a460.45,460.45,0,0,0-93.83-14.63L256,439.51l-3.07,0V240.32a9.59,9.59,0,0,1,2.65-5.55c14.1-14.57,37.06-17.21,54.35-6.55,7.93,4.89,13.57,11.77,17.68,20.31,17-35.37,64.24-35.66,82.08-.11-0.18-33.8-9.19-63.92-27.73-90.83-31.05-45.09-74.58-68.69-129.22-72.65,0-3.53-.19-6.79,0-10,0.3-4-.27-7.53-3.44-10.28h-6.82c-2.87,2.68-3.82,5.93-3.46,9.85,0.32,3.48.07,7,.07,10.47-101,5.93-159.05,91.34-156.48,162.85,8.79-16.62,22.07-26.12,40.85-26s32.08,10,40.69,26.89c0.75-1.45,1.18-2.34,1.65-3.2,14.26-26.23,47.48-31.82,69.54-11.74a10.48,10.48,0,0,1,3.84,8.43h0.11V439.53c-11.41.65-22.53,1.08-33.56,2.13a464.44,464.44,0,0,0-73,13C61.89,413.87,14,337.44,14,250,14,119.89,119.89,14,250,14S486,119.89,486,250C486,337.68,437.85,414.29,366.67,455ZM253.15,218.13V99.82c8.21,3.62,15,9.11,21.25,15.23,19.06,18.63,31.51,41.43,40.45,66.17,4.65,12.88,8,26.25,11.84,39.4A15.05,15.05,0,0,1,327,223C303.43,204.34,279,202.6,253.15,218.13ZM235.89,100c-13,6.33-23.63,15.52-32.46,26.85-13.88,17.78-23.07,38-29.78,59.31-3.86,12.26-6.83,24.8-10.22,37.3-18-16-39-19.57-62.13-11.89C112.14,161.15,161.55,104.85,235.89,100Z"/></svg>